{"title":"The Crimson Field S01E03 Xvid RB58.avi","uid":10010785,"size":502895684,"categoryP":"video","categoryS":"tv_shows","magnet":"?xt=urn:btih:cbe97a83291723477bc02f9d6618fa3d011a55e2&amp;dn=The+Crimson+Field+S01E03+Xvid+RB58.avi&amp;tr=udp%3A%2F%2Ftracker.openbittorrent.com%3A80&amp;tr=udp%3A%2F%2Fopen.demonii.com%3A1337&amp;tr=udp%3A%2F%2Ftracker.coppersurfer.tk%3A6969&amp;tr=udp%3A%2F%2Fexodus.desync.com%3A6969","seeders":10,"leechers":2,"uploader":"RedBaron58","files":1,"time":1398096994,"description":"The Crimson Field S01 E03 Xvid\n  &lt;a href=&quot;\nhttp://www.imdb.com/title/tt3494220/&quot; rel=&quot;nofollow&quot; target=&quot;_NEW&quot;&gt;\nhttp://www.imdb.com/title/tt3494220/&lt;/a&gt;\n\n\nThank you for your kind comments and thumbs ups on my other torrents, your feedback is welcome.\n\n\nAbout the Episode:\nThomas is struggling with a growing attraction to Kitty, although he is having much more success on \nthe wards with a pioneering system for the treatment of wounds. However, despite a test patient doing well, \nthe captain falls victim to a bullying major who is dismissive of his methods.\n\n\nI hope you enjoy.\n\n\nTechnical:\n\nGeneral\nComplete name                            : G:The Crimson Field S01E03 Xvid RB58.avi\nFormat                                   : AVI\nFormat/Info                              : Audio Video Interleave\nFile size                                : 480 MiB\nDuration                                 : 59mn 9s\nOverall bit rate                         : 1 133 Kbps\n\nVideo\nID                                       : 0\nFormat                                   : MPEG-4 Visual\nFormat profile                           : Advanced Simple@L4\nFormat settings, BVOP                    : 2\nFormat settings, QPel                    : No\nFormat settings, GMC                     : No warppoints\nFormat settings, Matrix                  : Default (H.263)\nCodec ID                                 : DIVX\nCodec ID/Info                            : Project Mayo\nCodec ID/Hint                            : DivX 4\nDuration                                 : 59mn 9s\nBit rate                                 : 992 Kbps\nWidth                                    : 704 pixels\nHeight                                   : 396 pixels\nDisplay aspect ratio                     : 16:9\nFrame rate                               : 25.000 fps\nColor space                              : YUV\nChroma subsampling                       : 4:2:0\nBit depth                                : 8 bits\nScan type                                : Progressive\nCompression mode                         : Lossy\nBits/(Pixel*Frame)                       : 0.142\nStream size                              : 420 MiB (88%)\nWriting library                          : XviD 64\n\nAudio\nID                                       : 1\nFormat                                   : MPEG Audio\nFormat version                           : Version 1\nFormat profile                           : Layer 3\nCodec ID                                 : 55\nCodec ID/Hint                            : MP3\nDuration                                 : 59mn 9s\nBit rate mode                            : Constant\nBit rate                                 : 128 Kbps\nChannel(s)                               : 2 channels\nSampling rate                            : 48.0 KHz\nCompression mode                         : Lossy\nStream size                              : 54.2 MiB (11%)\nAlignment                                : Aligned on interleaves\nInterleave, duration                     : 24 ms (0.60 video frame)","torrent":{"xt":"urn:btih:cbe97a83291723477bc02f9d6618fa3d011a55e2","amp;dn":"The+Crimson+Field+S01E03+Xvid+RB58.avi","amp;tr":["udp%3A%2F%2Ftracker.openbittorrent.com%3A80","udp%3A%2F%2Fopen.demonii.com%3A1337","udp%3A%2F%2Ftracker.coppersurfer.tk%3A6969","udp%3A%2F%2Fexodus.desync.com%3A6969"],"infoHash":"cbe97a83291723477bc02f9d6618fa3d011a55e2","infoHashBuffer":{"type":"Buffer","data":[203,233,122,131,41,23,35,71,123,192,47,157,102,24,250,61,1,26,85,226]},"announce":[],"urlList":[]}}